<?xml version="1.0" encoding="UTF-8" standalone="no"?>
<svg
   xmlns:dc="http://purl.org/dc/elements/1.1/"
   xmlns:cc="http://creativecommons.org/ns#"
   xmlns:rdf="http://www.w3.org/1999/02/22-rdf-syntax-ns#"
   xmlns:svg="http://www.w3.org/2000/svg"
   xmlns="http://www.w3.org/2000/svg"
   xmlns:sodipodi="http://sodipodi.sourceforge.net/DTD/sodipodi-0.dtd"
   xmlns:inkscape="http://www.inkscape.org/namespaces/inkscape"
   width="1341.7323"
   height="1209.4489"
   id="box"
   version="1.1"
   inkscape:version="0.92.4 (5da689c313, 2019-01-14)"
   sodipodi:docname="reste avec trou.svg"
   viewBox="0 0 1257.874 1133.8583">
  <defs
     id="defs4" />
  <sodipodi:namedview
     id="base"
     pagecolor="#ffffff"
     bordercolor="#666666"
     borderopacity="1.0"
     inkscape:pageopacity="0.0"
     inkscape:pageshadow="2"
     inkscape:document-units="mm"
     inkscape:current-layer="layer1"
     showgrid="false"
     fit-margin-top="0"
     fit-margin-left="0"
     fit-margin-right="0"
     fit-margin-bottom="0"
     units="mm"
     inkscape:window-maximized="1"
     inkscape:zoom="0.44483072"
     inkscape:cx="428.59896"
     inkscape:cy="738.12855"
     inkscape:window-width="1366"
     inkscape:window-height="705"
     inkscape:window-x="-8"
     inkscape:window-y="-8" />
  <metadata
     id="metadata7">
    <rdf:rdf>
      <cc:work
         rdf:about="">
        <dc:format>image/svg+xml</dc:format>
        <dc:type
           rdf:resource="http://purl.org/dc/dcmitype/StillImage" />
        <dc:title />
      </cc:work>
    </rdf:rdf>
    <rdf:RDF>
      <cc:Work
         rdf:about="">
        <dc:format>image/svg+xml</dc:format>
        <dc:type
           rdf:resource="http://purl.org/dc/dcmitype/StillImage" />
        <dc:title></dc:title>
      </cc:Work>
    </rdf:RDF>
  </metadata>
  <g
     inkscape:label="Calque 1"
     inkscape:groupmode="layer"
     id="layer1">
    <path
       style="fill:#ffffff;stroke:#ff0000"
       id="bottom"
       transform="translate(17.716535,17.716535)"
       d="m 0,0 h 35.610236 v 17.716535 h 35.07874 V 0 h 35.787404 v 17.716535 h 35.07874 V 0 h 35.7874 v 17.716535 h 35.07874 V 0 h 35.7874 V 17.716535 H 283.2874 V 0 h 35.7874 v 17.716535 h 35.07874 V 0 h 35.7874 v 17.716535 h 35.07875 V 0 h 35.7874 v 17.716535 h 35.07874 V 0 h 35.7874 v 17.716535 h 35.07874 V 0 H 602.3622 V 39.547244 H 584.64567 V 78.562992 H 602.3622 V 118.2874 h -17.71653 v 39.01575 h 17.71653 v 39.72441 h -17.71653 v 39.01575 h 17.71653 v 39.72441 h -17.71653 v 39.01574 h 17.71653 v 39.54725 h -35.61023 v -17.71654 h -35.07874 v 17.71654 h -35.7874 v -17.71654 h -35.07874 v 17.71654 h -35.7874 v -17.71654 h -35.07875 v 17.71654 h -35.7874 V 336.61417 H 319.0748 v 17.71654 h -35.7874 v -17.71654 h -35.07874 v 17.71654 h -35.7874 v -17.71654 h -35.07874 v 17.71654 h -35.7874 v -17.71654 h -35.07874 v 17.71654 H 70.688976 v -17.71654 h -35.07874 v 17.71654 H 0 V 314.78346 H 17.716535 V 275.76772 H 0 V 236.04331 H 17.716535 V 197.02756 H 0 V 157.30315 H 17.716535 V 118.2874 H 0 V 78.562992 H 17.716535 V 39.547244 H 0 Z"
       inkscape:connector-curvature="0" />
    <path
       style="fill:#ffffff;stroke:#ff0000"
       id="top"
       transform="translate(637.79528,17.716535)"
       d="m 0,0 h 35.610236 v 17.716535 h 35.07874 V 0 h 35.787404 v 17.716535 h 35.07874 V 0 h 35.7874 v 17.716535 h 35.07874 V 0 h 35.7874 V 17.716535 H 283.2874 V 0 h 35.7874 v 17.716535 h 35.07874 V 0 h 35.7874 v 17.716535 h 35.07875 V 0 h 35.7874 v 17.716535 h 35.07874 V 0 h 35.7874 v 17.716535 h 35.07874 V 0 H 602.3622 V 39.547244 H 584.64567 V 78.562992 H 602.3622 V 118.2874 h -17.71653 v 39.01575 h 17.71653 v 39.72441 h -17.71653 v 39.01575 h 17.71653 v 39.72441 h -17.71653 v 39.01574 h 17.71653 v 39.54725 h -35.61023 v -17.71654 h -35.07874 v 17.71654 h -35.7874 v -17.71654 h -35.07874 v 17.71654 h -35.7874 v -17.71654 h -35.07875 v 17.71654 h -35.7874 V 336.61417 H 319.0748 v 17.71654 h -35.7874 v -17.71654 h -35.07874 v 17.71654 h -35.7874 v -17.71654 h -35.07874 v 17.71654 h -35.7874 v -17.71654 h -35.07874 v 17.71654 H 70.688976 v -17.71654 h -35.07874 v 17.71654 H 0 V 314.78346 H 17.716535 V 275.76772 H 0 V 236.04331 H 17.716535 V 197.02756 H 0 V 157.30315 H 17.716535 V 118.2874 H 0 V 78.562992 H 17.716535 V 39.547244 H 0 Z"
       inkscape:connector-curvature="0" />
    <path
       style="fill:#ffffff;stroke:#ff0000"
       id="font"
       transform="translate(637.79528,389.76378)"
       d="M 0,17.716535 H 35.255906 V 0 H 71.043307 V 17.716535 H 106.12205 V 0 h 35.7874 v 17.716535 h 35.07874 V 0 h 35.7874 v 17.716535 h 35.07874 V 0 h 35.7874 v 17.716535 h 35.07874 V 0 h 35.7874 v 17.716535 h 35.07874 V 0 h 35.78741 v 17.716535 h 35.07874 V 0 h 35.7874 V 17.716535 H 531.3189 V 0 h 35.7874 v 17.716535 h 35.2559 v 35.610237 h -17.71653 v 35.07874 h 17.71653 v 35.787398 h -17.71653 v 35.07874 h 17.71653 v 35.78741 h -17.71653 v 35.07874 h 17.71653 v 35.7874 h -17.71653 v 35.07874 h 17.71653 v 35.61023 h -35.2559 v 17.71654 h -35.7874 v -17.71654 h -35.07874 v 17.71654 h -35.7874 v -17.71654 h -35.07874 v 17.71654 h -35.78741 v -17.71654 h -35.07874 v 17.71654 h -35.7874 v -17.71654 h -35.07874 v 17.71654 h -35.7874 v -17.71654 h -35.07874 v 17.71654 h -35.7874 v -17.71654 h -35.07874 v 17.71654 h -35.7874 V 336.61417 H 71.043307 v 17.71654 H 35.255906 V 336.61417 H 0 V 301.00394 H 17.716535 V 265.9252 H 0 V 230.1378 H 17.716535 V 195.05906 H 0 V 159.27165 H 17.716535 V 124.19291 H 0 V 88.405512 H 17.716535 V 53.326772 H 0 Z"
       inkscape:connector-curvature="0" />
    <path
       style="fill:#ffffff;stroke:#ff0000"
       id="back"
       d="M 0,17.716535 H 35.255906 V 0 H 71.043307 V 17.716535 H 106.12205 V 0 h 35.7874 v 17.716535 h 35.07874 V 0 h 35.7874 v 17.716535 h 35.07874 V 0 h 35.7874 v 17.716535 h 35.07874 V 0 h 35.7874 v 17.716535 h 35.07874 V 0 h 35.78741 v 17.716535 h 35.07874 V 0 h 35.7874 V 17.716535 H 531.3189 V 0 h 35.7874 v 17.716535 h 35.2559 v 35.610237 h -17.71653 v 35.07874 h 17.71653 v 35.787398 h -17.71653 v 35.07874 h 17.71653 v 35.78741 h -17.71653 v 35.07874 h 17.71653 v 35.7874 h -17.71653 v 35.07874 h 17.71653 v 35.61023 h -35.2559 v 17.71654 h -35.7874 v -17.71654 h -35.07874 v 17.71654 h -35.7874 v -17.71654 h -35.07874 v 17.71654 h -35.78741 v -17.71654 h -35.07874 v 17.71654 h -35.7874 v -17.71654 h -35.07874 v 17.71654 h -35.7874 v -17.71654 h -35.07874 v 17.71654 h -35.7874 v -17.71654 h -35.07874 v 17.71654 h -35.7874 V 336.61417 H 71.043307 v 17.71654 H 35.255906 V 336.61417 H 0 V 301.00394 H 17.716535 V 265.9252 H 0 V 230.1378 H 17.716535 V 195.05906 H 0 V 159.27165 H 17.716535 V 124.19291 H 0 V 88.405512 H 17.716535 V 53.326772 H 0 Z"
       inkscape:connector-curvature="0"
       transform="translate(17.716535,389.76378)" />
    <path
       style="fill:#ffffff;stroke:#ff0000"
       id="left_side"
       transform="translate(389.76378,761.81102)"
       d="M 17.716535,17.716535 H 39.192913 V 0 h 39.72441 V 17.716535 H 117.93307 V 0 h 39.72441 v 17.716535 h 39.01575 V 0 h 39.72441 v 17.716535 h 39.01575 V 0 h 39.72441 v 17.716535 h 21.47637 v 35.255906 h 17.71654 v 35.787402 h -17.71654 v 35.078737 h 17.71654 v 35.7874 h -17.71654 v 35.07874 h 17.71654 v 35.78741 h -17.71654 v 35.07874 h 17.71654 v 35.7874 h -17.71654 v 35.2559 H 315.1378 v 17.71654 h -39.72441 v -17.71654 h -39.01575 v 17.71654 h -39.72441 v -17.71654 h -39.01575 v 17.71654 H 117.93307 V 336.61417 H 78.917323 v 17.71654 H 39.192913 V 336.61417 H 17.716535 v -35.2559 H 0 v -35.7874 H 17.716535 V 230.49213 H 0 V 194.70472 H 17.716535 V 159.62598 H 0 v -35.7874 H 17.716535 V 88.759843 H 0 V 52.972441 h 17.716535 z"
       inkscape:connector-curvature="0" />
    <path
       style="fill:#ffffff;stroke:#ff0000"
       id="right_side"
       transform="translate(17.716535,761.81102)"
       d="M 17.716535,17.716535 H 39.192913 V 0 h 39.72441 V 17.716535 H 117.93307 V 0 h 39.72441 v 17.716535 h 39.01575 V 0 h 39.72441 v 17.716535 h 39.01575 V 0 h 39.72441 v 17.716535 h 21.47637 v 35.255906 h 17.71654 v 35.787402 h -17.71654 v 35.078737 h 17.71654 v 35.7874 h -17.71654 v 35.07874 h 17.71654 v 35.78741 h -17.71654 v 35.07874 h 17.71654 v 35.7874 h -17.71654 v 35.2559 H 315.1378 v 17.71654 h -39.72441 v -17.71654 h -39.01575 v 17.71654 h -39.72441 v -17.71654 h -39.01575 v 17.71654 H 117.93307 V 336.61417 H 78.917323 v 17.71654 H 39.192913 V 336.61417 H 17.716535 v -35.2559 H 0 v -35.7874 H 17.716535 V 230.49213 H 0 V 194.70472 H 17.716535 V 159.62598 H 0 v -35.7874 H 17.716535 V 88.759843 H 0 V 52.972441 h 17.716535 z"
       inkscape:connector-curvature="0" />
    <circle
       style="fill:none;stroke:#ff0000;stroke-width:0.9375;stroke-opacity:1"
       id="path6387"
       cx="318.89767"
       cy="435.60284"
       r="8.8582678" />
  </g>
</svg>
